<svg width="121" height="22" viewBox="0 0 121 22" fill="none" xmlns="http://www.w3.org/2000/svg">
<g clip-path="url(#clip0_2004_130)">
<path d="M3.06 9.14992L10.8 1.16992H14.82L5.79 10.2299L14.88 21.1799H10.8L3.66 12.2999L3.06 12.8999V21.1799H0V1.16992H3.06V9.14992Z" fill="white" style="fill:white;fill-opacity:1;"/>
<path d="M29.43 5.61006C29.25 5.16006 28.98 4.74006 28.53 4.35006C27.9 3.84006 27.24 3.63006 26.37 3.63006C24.51 3.63006 23.55 4.74006 23.55 6.03006C23.55 6.63006 23.76 7.68006 25.71 8.46006L27.72 9.27006C31.41 10.7701 32.43 12.8701 32.43 15.1501C32.43 18.9601 29.73 21.5701 25.98 21.5701C23.67 21.5701 22.29 20.7001 21.27 19.5601C20.19 18.3601 19.71 17.0401 19.59 15.6601L22.62 15.0001C22.62 15.9901 22.98 16.9201 23.46 17.5501C24.03 18.2701 24.87 18.7501 26.07 18.7501C27.93 18.7501 29.37 17.4001 29.37 15.3901C29.37 13.3801 27.81 12.5101 26.49 11.9701L24.57 11.1601C22.92 10.4701 20.49 9.09006 20.49 6.09006C20.49 3.39006 22.59 0.810059 26.34 0.810059C28.5 0.810059 29.73 1.62006 30.36 2.16006C30.9 2.64006 31.47 3.33006 31.89 4.17006L29.43 5.61006Z" fill="white" style="fill:white;fill-opacity:1;"/>
<path d="M53.64 1.16992V21.1799H50.58V1.16992H53.64Z" fill="white" style="fill:white;fill-opacity:1;"/>
<path d="M66.3 1.16992C69.09 1.16992 71.52 1.46992 73.74 3.11992C76.17 4.94992 77.58 7.85992 77.58 11.1899C77.58 14.5199 76.2 17.3999 73.56 19.2599C71.22 20.9099 69.03 21.1799 66.24 21.1799H62.1V1.16992H66.3ZM65.16 18.2999H66.48C67.98 18.2999 70.05 18.1799 71.79 16.8899C73.17 15.8399 74.52 13.9199 74.52 11.1899C74.52 8.45992 73.26 6.47992 71.82 5.42992C70.08 4.16992 67.95 4.04992 66.48 4.04992H65.16V18.2999Z" fill="white" style="fill:white;fill-opacity:1;"/>
<path d="M96.12 4.04992H88.14V9.11992H95.88V11.9999H88.14V18.2999H96.12V21.1799H85.08V1.16992H96.12V4.04992Z" fill="white" style="fill:white;fill-opacity:1;"/>
<path d="M115.5 16.35H106.95L104.76 21.18H101.46L111.42 0L120.9 21.18H117.6L115.5 16.35ZM114.27 13.47L111.3 6.69L108.21 13.47H114.27Z" fill="white" style="fill:white;fill-opacity:1;"/>
</g>
<defs>
<clipPath id="clip0_2004_130">
<rect width="120.9" height="21.57" fill="white" style="fill:white;fill-opacity:1;"/>
</clipPath>
</defs>
</svg>
