<svg width="270" height="18" viewBox="0 0 270 18" fill="none" xmlns="http://www.w3.org/2000/svg">
<g clip-path="url(#clip0_2_2)">
<path d="M2.55 7.62L9 0.970001H12.35L4.83 8.52L12.4 17.64H9L3.05 10.24L2.55 10.74V17.64H0V0.970001H2.55V7.62Z" fill="black" style="fill:black;fill-opacity:1;"/>
<path d="M52.72 4.67001C52.57 4.29001 52.34 3.94001 51.97 3.62001C51.44 3.20001 50.89 3.02001 50.17 3.02001C48.62 3.02001 47.82 3.94001 47.82 5.02001C47.82 5.52001 47.99 6.40001 49.62 7.04001L51.29 7.71001C54.36 8.96001 55.21 10.71 55.21 12.61C55.21 15.78 52.96 17.96 49.84 17.96C47.92 17.96 46.77 17.24 45.92 16.29C45.02 15.29 44.62 14.19 44.52 13.04L47.04 12.49C47.04 13.32 47.34 14.09 47.74 14.61C48.22 15.21 48.91 15.61 49.91 15.61C51.46 15.61 52.66 14.49 52.66 12.81C52.66 11.13 51.36 10.41 50.26 9.96001L48.66 9.29001C47.29 8.72001 45.26 7.57001 45.26 5.07001C45.26 2.82001 47.01 0.670013 50.13 0.670013C51.93 0.670013 52.95 1.35001 53.48 1.79001C53.93 2.19001 54.4 2.76001 54.75 3.46001L52.7 4.66001L52.72 4.67001Z" fill="black" style="fill:black;fill-opacity:1;"/>
<path d="M129.3 0.970001V17.64H126.75V0.970001H129.3Z" fill="black" style="fill:black;fill-opacity:1;"/>
<path d="M168.05 0.970001C170.37 0.970001 172.4 1.22 174.25 2.59C176.27 4.11 177.45 6.54 177.45 9.31C177.45 12.08 176.3 14.48 174.1 16.03C172.15 17.41 170.33 17.63 168 17.63H164.55V0.970001H168.05ZM167.1 15.25H168.2C169.45 15.25 171.17 15.15 172.62 14.07C173.77 13.2 174.89 11.6 174.89 9.32C174.89 7.04 173.84 5.4 172.64 4.52C171.19 3.47 169.42 3.37 168.19 3.37H167.09V15.24L167.1 15.25Z" fill="black" style="fill:black;fill-opacity:1;"/>
<path d="M221.1 3.37H214.45V7.59H220.9V9.99H214.45V15.24H221.1V17.64H211.9V0.970001H221.1V3.37Z" fill="black" style="fill:black;fill-opacity:1;"/>
<path d="M265.45 13.62H258.33L256.51 17.64H253.76L262.06 0L269.96 17.64H267.21L265.46 13.62H265.45ZM264.42 11.22L261.95 5.57L259.38 11.22H264.43H264.42Z" fill="black" style="fill:black;fill-opacity:1;"/>
</g>
<defs>
<clipPath id="clip0_2_2">
<rect width="269.95" height="17.97" fill="white" style="fill:white;fill-opacity:1;"/>
</clipPath>
</defs>
</svg>
