<svg width="499" height="27" viewBox="0 0 499 27" fill="none" xmlns="http://www.w3.org/2000/svg">
<path d="M13.88 13.1001H23.51V13.2701C23.51 17.2601 22.32 20.5201 20.04 22.7201C17.62 25.0701 14.75 25.7001 12.09 25.7001C8.69004 25.7001 6.28004 24.7201 4.14004 22.5101C1.86004 20.1701 0.670044 17.0501 0.670044 13.6901C0.670044 10.0501 2.14004 6.90009 4.07004 4.97009C6.07004 2.94009 9.25004 1.47009 12.86 1.47009C14.96 1.47009 17.13 1.93009 18.95 2.94009C20.88 4.02009 22.07 5.39009 22.73 6.44009L19.89 8.44009C19.19 7.46009 18.14 6.41009 17.02 5.78009C15.73 5.01009 14.32 4.76009 12.89 4.76009C9.84004 4.76009 7.88004 6.02008 6.73004 7.18008C5.19004 8.72008 4.24004 11.2101 4.24004 13.7201C4.24004 16.0701 5.12004 18.4101 6.66004 20.0601C8.27004 21.7701 10.26 22.4101 12.51 22.4101C14.54 22.4101 16.22 21.8101 17.73 20.3401C19.02 19.0801 19.55 17.7201 19.69 16.3801H13.88V13.0901V13.1001Z" fill="black" style="fill:black;fill-opacity:1;"/>
<path d="M40.55 1.90002C43.39 1.90002 45.21 2.25003 46.71 3.27003C49.27 4.98003 49.48 7.75003 49.48 8.77003C49.48 12.13 47.42 14.58 44.3 15.28L51.58 25.26H47.27L40.58 15.7H39.95V25.26H36.38V1.91003H40.55V1.90002ZM39.95 12.61H41.07C42.05 12.61 46.04 12.51 46.04 8.79002C46.04 5.50002 42.92 5.19003 41.17 5.19003H39.94V12.61H39.95Z" fill="black" style="fill:black;fill-opacity:1;"/>
<path d="M86.6401 13.59C86.6401 20.45 81.4901 25.7 74.4901 25.7C67.4901 25.7 62.3401 20.45 62.3401 13.59C62.3401 6.72998 67.4901 1.47998 74.4901 1.47998C81.4901 1.47998 86.6401 6.72998 86.6401 13.59ZM83.0701 13.59C83.0701 8.40998 79.5001 4.76999 74.4901 4.76999C69.4801 4.76999 65.9101 8.40998 65.9101 13.59C65.9101 18.77 69.4801 22.41 74.4901 22.41C79.5001 22.41 83.0701 18.77 83.0701 13.59Z" fill="black" style="fill:black;fill-opacity:1;"/>
<path d="M100.01 1.90002L106.17 17.51L112.47 0.780029L118.56 17.51L124.93 1.90002H128.78L118.35 26.75L112.26 10.19L106.1 26.75L96.16 1.90002H100.01Z" fill="black" style="fill:black;fill-opacity:1;"/>
<path d="M196.22 13.59C196.22 20.45 191.07 25.7 184.07 25.7C177.07 25.7 171.92 20.45 171.92 13.59C171.92 6.72998 177.07 1.47998 184.07 1.47998C191.07 1.47998 196.22 6.72998 196.22 13.59ZM192.65 13.59C192.65 8.40998 189.08 4.76999 184.07 4.76999C179.06 4.76999 175.49 8.40998 175.49 13.59C175.49 18.77 179.06 22.41 184.07 22.41C189.08 22.41 192.65 18.77 192.65 13.59Z" fill="black" style="fill:black;fill-opacity:1;"/>
<path d="M213.27 1.90002C216.11 1.90002 217.93 2.25003 219.43 3.27003C221.99 4.98003 222.2 7.75003 222.2 8.77003C222.2 12.13 220.14 14.58 217.02 15.28L224.3 25.26H219.99L213.3 15.7H212.67V25.26H209.1V1.91003H213.27V1.90002ZM212.67 12.61H213.79C214.77 12.61 218.76 12.51 218.76 8.79002C218.76 5.50002 215.64 5.19003 213.89 5.19003H212.66V12.61H212.67Z" fill="black" style="fill:black;fill-opacity:1;"/>
<path d="M274.02 1.90002C277.28 1.90002 280.11 2.25002 282.7 4.18002C285.53 6.32002 287.18 9.71004 287.18 13.6C287.18 17.49 285.57 20.85 282.49 23.02C279.76 24.94 277.2 25.26 273.95 25.26H269.12V1.91003H274.02V1.90002ZM272.69 21.89H274.23C275.98 21.89 278.4 21.75 280.43 20.24C282.04 19.02 283.62 16.78 283.62 13.59C283.62 10.4 282.15 8.09003 280.47 6.87003C278.44 5.40003 275.95 5.26003 274.24 5.26003H272.7V21.89H272.69Z" fill="black" style="fill:black;fill-opacity:1;"/>
<path d="M303.63 1.90002V25.25H300.06V1.90002H303.63Z" fill="black" style="fill:black;fill-opacity:1;"/>
<path d="M327.71 7.08009C327.5 6.55009 327.19 6.07009 326.66 5.61009C325.93 5.01009 325.16 4.7701 324.14 4.7701C321.97 4.7701 320.85 6.0701 320.85 7.5701C320.85 8.2701 321.1 9.49009 323.37 10.4001L325.72 11.3501C330.03 13.1001 331.22 15.5501 331.22 18.2101C331.22 22.6601 328.07 25.7001 323.69 25.7001C320.99 25.7001 319.38 24.6801 318.19 23.3501C316.93 21.9501 316.37 20.4101 316.23 18.8001L319.77 18.0301C319.77 19.1901 320.19 20.2701 320.75 21.0101C321.42 21.8501 322.4 22.4101 323.8 22.4101C325.97 22.4101 327.65 20.8301 327.65 18.4901C327.65 16.1501 325.83 15.1301 324.29 14.5001L322.05 13.5501C320.12 12.7501 317.29 11.1301 317.29 7.6301C317.29 4.4801 319.74 1.47009 324.12 1.47009C326.64 1.47009 328.08 2.42009 328.81 3.05009C329.44 3.61009 330.11 4.42009 330.6 5.40009L327.73 7.08009H327.71Z" fill="black" style="fill:black;fill-opacity:1;"/>
<path d="M357.81 19.61H347.83L345.27 25.25H341.42L353.04 0.540039L364.1 25.25H360.25L357.8 19.61H357.81ZM356.38 16.25L352.91 8.34004L349.3 16.25H356.37H356.38Z" fill="black" style="fill:black;fill-opacity:1;"/>
<path d="M380.6 1.90002C382.04 1.90002 384.03 2.04003 385.71 3.16003C387.67 4.45003 388.62 6.70003 388.62 8.83003C388.62 10.2 388.27 12.3 386.34 13.94C384.48 15.52 382.35 15.76 380.63 15.76H379.02V25.25H375.45V1.90002H380.6ZM379.02 12.47H380.63C383.71 12.47 385.18 10.97 385.18 8.79002C385.18 7.50002 384.66 5.19003 380.59 5.19003H379.01V12.47H379.02Z" fill="black" style="fill:black;fill-opacity:1;"/>
<path d="M405.8 1.90002C407.24 1.90002 409.23 2.04003 410.91 3.16003C412.87 4.45003 413.82 6.70003 413.82 8.83003C413.82 10.2 413.47 12.3 411.55 13.94C409.69 15.52 407.56 15.76 405.84 15.76H404.23V25.25H400.66V1.90002H405.81H405.8ZM404.22 12.47H405.83C408.91 12.47 410.38 10.97 410.38 8.79002C410.38 7.50002 409.86 5.19003 405.79 5.19003H404.21V12.47H404.22Z" fill="black" style="fill:black;fill-opacity:1;"/>
<path d="M438.73 5.26003H429.42V11.18H438.45V14.54H429.42V21.89H438.73V25.25H425.85V1.90002H438.73V5.26003Z" fill="black" style="fill:black;fill-opacity:1;"/>
<path d="M465.47 19.61H455.49L452.93 25.25H449.08L460.7 0.540039L471.76 25.25H467.91L465.46 19.61H465.47ZM464.04 16.25L460.58 8.34004L456.97 16.25H464.04Z" fill="black" style="fill:black;fill-opacity:1;"/>
<path d="M487.28 1.90002C490.11 1.90002 491.94 2.25003 493.44 3.27003C496 4.98003 496.21 7.75003 496.21 8.77003C496.21 12.13 494.14 14.58 491.03 15.28L498.31 25.26H494L487.31 15.7H486.68V25.26H483.11V1.91003H487.28V1.90002ZM486.68 12.61H487.8C488.78 12.61 492.77 12.51 492.77 8.79002C492.77 5.50002 489.65 5.19003 487.9 5.19003H486.68V12.61Z" fill="black" style="fill:black;fill-opacity:1;"/>
</svg>
