<svg width="70" height="70" viewBox="0 0 70 70" fill="none" xmlns="http://www.w3.org/2000/svg">
<g clip-path="url(#clip0_2005_138)">
<path d="M53.08 19.8901C55.2395 19.8901 56.99 18.1395 56.99 15.9801C56.99 13.8206 55.2395 12.0701 53.08 12.0701C50.9206 12.0701 49.17 13.8206 49.17 15.9801C49.17 18.1395 50.9206 19.8901 53.08 19.8901Z" fill="white" style="fill:white;fill-opacity:1;"/>
<path d="M63.4055 19.6604C63.4055 11.898 57.1122 5.60474 49.3499 5.60474H19.6604C11.898 5.60474 5.60474 11.898 5.60474 19.6604V49.3499C5.60474 57.1122 11.898 63.4055 19.6604 63.4055H49.3499C57.1122 63.4055 63.4055 57.1122 63.4055 49.3499V19.6604ZM69.0149 49.3499C69.0149 60.2105 60.2105 69.0149 49.3499 69.0149H19.6604C8.79972 69.0149 -0.00463867 60.2105 -0.00463867 49.3499V19.6604C-0.00463867 8.79972 8.79972 -0.00463867 19.6604 -0.00463867H49.3499C60.2105 -0.00463867 69.0149 8.79972 69.0149 19.6604V49.3499Z" fill="white" style="fill:white;fill-opacity:1;"/>
<path d="M45.9802 34.4495C45.98 28.115 40.8441 22.9797 34.5095 22.9797C28.1752 22.98 23.04 28.1151 23.0398 34.4495C23.0398 40.784 28.175 45.9199 34.5095 45.9202C40.8442 45.9202 45.9802 40.7842 45.9802 34.4495ZM52.1599 34.4495C52.1599 44.1973 44.2573 52.0999 34.5095 52.0999C24.7619 52.0996 16.8601 44.1971 16.8601 34.4495C16.8603 24.702 24.762 16.8003 34.5095 16.8C44.2572 16.8 52.1597 24.7018 52.1599 34.4495Z" fill="white" style="fill:white;fill-opacity:1;"/>
</g>
<defs>
<clipPath id="clip0_2005_138">
<rect width="69.02" height="69.02" fill="white" style="fill:white;fill-opacity:1;"/>
</clipPath>
</defs>
</svg>
